<svg width="133" height="128" viewBox="0 0 133 128" fill="none" xmlns="http://www.w3.org/2000/svg">
<path d="M37.5 11C34.4648 11 32 8.53518 32 5.5C32 2.46481 34.4648 0 37.5 0C40.5352 0 43 2.46481 43 5.5C43 8.53518 40.5352 11 37.5 11ZM37.5 2.44444C35.8093 2.44444 34.4444 3.80926 34.4444 5.5C34.4444 7.19074 35.8093 8.55556 37.5 8.55556C39.1907 8.55556 40.5556 7.19074 40.5556 5.5C40.5556 3.80926 39.1907 2.44444 37.5 2.44444Z" fill="#31C48A"/>
<path d="M102.5 128C99.4648 128 97 125.535 97 122.5C97 119.465 99.4648 117 102.5 117C105.535 117 108 119.465 108 122.5C108 125.535 105.535 128 102.5 128ZM102.5 119.444C100.809 119.444 99.4444 120.809 99.4444 122.5C99.4444 124.191 100.809 125.556 102.5 125.556C104.191 125.556 105.556 124.191 105.556 122.5C105.556 120.809 104.191 119.444 102.5 119.444Z" fill="#31C48A"/>
<path d="M8.84937 94.7637V41.6637" stroke="#6E7BF4" stroke-width="6.32142"/>
<path d="M16.0005 46.0903L1.74104 46.0903C0.969245 46.0903 0.488375 45.2531 0.877258 44.5864L8.18087 32.0659C8.57145 31.3964 9.54236 31.4066 9.91881 32.0842L16.8746 44.6046C17.2449 45.2712 16.7629 46.0903 16.0005 46.0903Z" fill="#6E7BF4" stroke="#6E7BF4" stroke-width="0.863414"/>
<path d="M123.9 30.5508V83.6507" stroke="#6E7BF4" stroke-width="6.32142"/>
<path d="M131.049 79.2242L116.79 79.2242C116.018 79.2242 115.537 80.0614 115.926 80.7281L123.23 93.2485C123.62 93.9181 124.591 93.9079 124.968 93.2303L131.923 80.7098C132.294 80.0433 131.812 79.2242 131.049 79.2242Z" fill="#6E7BF4" stroke="#6E7BF4" stroke-width="0.863414"/>
<path d="M64.4523 116C80.5607 116 93.619 102.942 93.619 86.8334C93.619 70.7251 80.5607 57.6667 64.4523 57.6667C48.344 57.6667 35.2856 70.7251 35.2856 86.8334C35.2856 102.942 48.344 116 64.4523 116Z" fill="#16B979"/>
<path d="M64.4522 110.741C77.6563 110.741 88.3603 100.037 88.3603 86.8326C88.3603 73.6285 77.6563 62.9246 64.4522 62.9246C51.2482 62.9246 40.5442 73.6285 40.5442 86.8326C40.5442 100.037 51.2482 110.741 64.4522 110.741Z" fill="#5DD49C"/>
<rect x="53.7974" y="87.3644" width="14.3177" height="14.3177" transform="rotate(-45 53.7974 87.3644)" fill="#16B979"/>
<path d="M64.5565 77.113C81.4324 77.113 95.113 63.4323 95.113 46.5565C95.113 29.6806 81.4324 16 64.5565 16C47.6806 16 34 29.6806 34 46.5565C34 63.4323 47.6806 77.113 64.5565 77.113Z" fill="#FF9D42"/>
<path d="M64.5563 71.603C78.3895 71.603 89.6036 60.3889 89.6036 46.5557C89.6036 32.7224 78.3895 21.5084 64.5563 21.5084C50.7231 21.5084 39.509 32.7224 39.509 46.5557C39.509 60.3889 50.7231 71.603 64.5563 71.603Z" fill="#FAAD14"/>
<path d="M70.5621 45.6814C72.0946 44.8971 73.0699 43.5027 72.8435 41.1845C72.5474 38.0123 69.9443 36.9491 66.4961 36.6529V32.2606H63.8142V36.5309C63.1175 36.5309 62.4035 36.5483 61.6895 36.5657V32.2606H59.0075V36.6529C58.0215 36.6827 56.873 36.6681 53.6262 36.6529V39.5113C55.7437 39.4738 56.8547 39.3376 57.1093 40.6965V52.7229C56.9476 53.801 56.0855 53.6457 54.1661 53.6118L53.6263 56.8014C58.5163 56.8014 59.0076 56.8188 59.0076 56.8188V60.5803H61.6896V56.8711C62.421 56.8885 63.135 56.8885 63.8142 56.8885V60.5803H66.4962V56.8188C70.9893 56.5748 73.9929 55.4419 74.3935 51.2065C74.7069 47.8078 73.1047 46.2914 70.5621 45.6814ZM61.7418 39.703C63.2569 39.703 67.9939 39.2325 67.9939 42.3872C67.9939 45.4025 63.257 45.0539 61.7418 45.0539V39.703ZM61.7418 53.6292V47.738C63.553 47.738 69.0992 47.2326 69.0992 50.6837C69.0992 54.0127 63.553 53.6292 61.7418 53.6292Z" fill="white"/>
</svg>
