<svg enable-background="new 0 0 50 50" height="50" viewBox="0 0 50 50" width="50" xmlns="http://www.w3.org/2000/svg"><g fill="#d20035"><path d="m28.365 36.043h-24.466c-.949 0-1.72-.771-1.72-1.721v-25.054c0-.949.771-1.721 1.72-1.721h34.054c.949 0 1.721.772 1.721 1.721v15.803c0 .414-.336.75-.75.75s-.75-.336-.75-.75v-15.803c0-.122-.099-.221-.221-.221h-34.054c-.122 0-.22.099-.22.221v25.055c0 .122.099.221.22.221h24.465c.414 0 .75.336.75.75s-.335.749-.749.749z"/><path d="m20.927 22.638-18.34-9.389.684-1.335 17.656 9.039 17.656-9.039.683 1.335z"/><path d="m20.927 25.354c-.45 0-.9-.108-1.301-.313l-4.484-2.295c-.369-.188-.515-.641-.326-1.009.188-.369.641-.515 1.009-.326l4.483 2.294c.379.194.854.194 1.238 0l4.482-2.294c.371-.19.822-.042 1.01.326.188.369.042.821-.326 1.009l-4.483 2.294c-.403.206-.853.314-1.302.314z"/><path d="m38.765 42.454c-.166 0-.332-.055-.47-.165-.028-.022-2.841-2.284-4.719-4.003-2.632-2.411-3.755-4.498-3.755-6.979 0-2.688 2.187-4.875 4.875-4.875 1.734 0 3.261.91 4.125 2.279.863-1.369 2.389-2.279 4.123-2.279 2.688 0 4.876 2.187 4.876 4.875 0 2.438-1.194 4.657-3.759 6.982-1.526 1.386-4.697 3.896-4.831 4.003-.136.108-.301.162-.465.162zm-4.068-14.523c-1.861 0-3.375 1.514-3.375 3.375 0 2.045.947 3.747 3.269 5.874 1.387 1.27 3.306 2.851 4.179 3.562.957-.765 3.139-2.523 4.285-3.564 2.229-2.021 3.267-3.887 3.267-5.871 0-1.861-1.515-3.375-3.376-3.375-1.86 0-3.373 1.514-3.373 3.375 0 .414-.336.75-.75.75s-.75-.336-.75-.75c-.001-1.862-1.515-3.376-3.376-3.376z"/></g></svg>