<svg enable-background="new 0 0 50 50" height="50" viewBox="0 0 50 50" width="50" xmlns="http://www.w3.org/2000/svg"><g fill="#d20035"><path d="m18.937 33.008h-.009c-8.029 0-14.564-6.536-14.567-14.568 0-3.875 1.51-7.527 4.251-10.283 2.755-2.768 6.417-4.292 10.313-4.292 3.899 0 7.556 1.516 10.31 4.269 2.756 2.751 4.274 6.409 4.274 10.301 0 3.875-1.509 7.526-4.249 10.28-2.759 2.768-6.426 4.293-10.323 4.293zm0-27.643c-3.505 0-6.79 1.367-9.261 3.85-2.46 2.472-3.815 5.748-3.815 9.224.003 7.206 5.865 13.069 13.067 13.069v.75l.008-.75c3.497 0 6.786-1.368 9.261-3.852 2.458-2.47 3.812-5.746 3.812-9.222 0-3.49-1.361-6.771-3.835-9.24-2.47-2.469-5.751-3.829-9.237-3.829z"/><path d="m18.937 29.353h-.009c-2.911 0-5.65-1.137-7.712-3.2s-3.198-4.803-3.198-7.714c0-2.906 1.132-5.643 3.187-7.705 2.067-2.075 4.812-3.218 7.729-3.218 2.916 0 5.658 1.137 7.72 3.2 2.064 2.062 3.203 4.803 3.205 7.717.001 2.903-1.13 5.637-3.185 7.7-2.07 2.076-4.818 3.22-7.737 3.22zm-.001-20.337c-2.517 0-4.885.986-6.669 2.776-1.773 1.779-2.749 4.139-2.749 6.646 0 2.511.979 4.874 2.759 6.654 1.779 1.78 4.142 2.761 6.651 2.761v.75l.008-.75c2.519 0 4.889-.986 6.675-2.778 1.772-1.779 2.748-4.138 2.747-6.64-.002-2.514-.984-4.878-2.765-6.657-1.78-1.782-4.143-2.762-6.657-2.762z"/><path d="m40.136 45.557c-.192 0-.384-.073-.53-.22l-11.279-11.277c-.141-.141-.22-.331-.22-.53s.079-.39.22-.53l5.172-5.171c.293-.293.768-.293 1.061 0l11.278 11.278c.141.141.22.331.22.53s-.079.39-.22.53l-5.172 5.17c-.146.146-.339.22-.53.22zm-10.218-12.028 10.218 10.217 4.111-4.109-10.218-10.218z"/><path d="m40.721 40.145c-.192 0-.384-.073-.53-.22l-4.114-4.114c-.293-.293-.293-.768 0-1.061s.768-.293 1.061 0l4.114 4.114c.293.293.293.768 0 1.061-.148.146-.339.22-.531.22z"/><path d="m33.342 35.146c-.192 0-.384-.073-.53-.22-.293-.293-.293-.768 0-1.061l2.772-2.772c.293-.293.768-.293 1.061 0s.293.768 0 1.061l-2.772 2.772c-.147.147-.339.22-.531.22z"/><path d="m41.119 46.527c-.199 0-.39-.079-.53-.22l-1.238-1.24c-.292-.294-.29-.769.004-1.061s.769-.29 1.061.004l1.004 1.006c2.192-.149 3.95-1.905 4.1-4.095l-1.009-1.008c-.293-.292-.295-.767-.002-1.061.292-.295.767-.293 1.061-.002l1.241 1.24c.14.141.219.331.219.529-.002 3.257-2.652 5.906-5.911 5.908z"/><path d="m31.109 31.459c-.192 0-.384-.073-.53-.22l-2.164-2.165c-.293-.293-.293-.768 0-1.061.294-.294.769-.292 1.061 0l2.164 2.165c.293.293.293.768 0 1.061-.147.147-.339.22-.531.22z"/></g></svg>