<svg enable-background="new 0 0 50 50" height="50" viewBox="0 0 50 50" width="50" xmlns="http://www.w3.org/2000/svg"><g fill="#d20035"><path d="m40.317 37.323c-.139 0-.279-.039-.405-.119l-10.405-6.706c-.349-.225-.448-.689-.225-1.037.225-.347.687-.448 1.037-.225l10.405 6.706c.349.225.448.689.225 1.037-.143.223-.385.344-.632.344z"/><path d="m40.317 32.787c-.139 0-.279-.039-.405-.119l-5.677-3.659c-.349-.225-.448-.689-.225-1.037s.687-.447 1.037-.225l5.677 3.659c.349.225.448.689.225 1.037-.143.223-.385.344-.632.344z"/><path d="m12.748 35.987c-.316 0-.61-.201-.713-.518l-3.828-11.723c-.128-.394.086-.817.48-.946.395-.13.817.086.946.48l3.598 11.019 30.534-9.607-1.46-4.35c-.132-.393.08-.818.473-.95.393-.133.817.08.949.472l1.703 5.074c.064.191.049.4-.043.579-.091.18-.251.314-.442.375l-31.972 10.061c-.075.024-.151.034-.225.034z"/><path d="m14.36 29.654c-.194 0-.384-.075-.526-.216l-8.454-8.333c-.188-.185-.265-.454-.203-.71s.253-.46.504-.54l36.981-11.641c.212-.067.439-.037.626.081s.312.312.343.53l1.481 10.528c.051.363-.168.71-.518.82l-30.01 9.447c-.073.023-.149.034-.224.034zm-7.039-8.742 7.244 7.142 28.973-9.12-1.27-9.022z"/><path d="m7.267 33.677c-.12 0-.239-.028-.347-.085-.176-.092-.309-.25-.369-.439l-2.194-6.973c-.125-.395.095-.816.49-.94l3.94-1.241c.396-.124.816.096.94.49.125.395-.095.816-.49.94l-3.225 1.016 1.744 5.542 3.225-1.017c.395-.125.816.096.94.49.125.396-.095.816-.49.941l-3.94 1.241c-.073.023-.149.035-.224.035z"/><path d="m44.928 41.82h-2.629c-1.505 0-2.729-1.225-2.729-2.729v-7.501c0-1.505 1.225-2.729 2.729-2.729h2.629c.414 0 .75.336.75.75v11.459c0 .414-.336.75-.75.75zm-2.629-11.459c-.678 0-1.229.551-1.229 1.229v7.501c0 .678.552 1.229 1.229 1.229h1.879v-9.959z"/></g></svg>