<svg enable-background="new 0 0 50 50" height="50" viewBox="0 0 50 50" width="50" xmlns="http://www.w3.org/2000/svg"><g fill="#d20035"><path d="m42.079 44.478c-.357 0-.675-.257-.738-.621l-2.201-12.645c-.07-.408.202-.797.61-.868.411-.063.797.202.868.61l2.201 12.645c.07.408-.202.797-.61.868-.044.007-.087.011-.13.011z"/><path d="m36.227 45.677c-.357 0-.674-.256-.737-.62-.072-.407.2-.797.608-.868l11.818-2.083c.412-.072.797.2.868.608.072.407-.2.797-.608.868l-11.818 2.083c-.045.008-.088.012-.131.012z"/><path d="m38.324 31.971c-5.576 0-9.248-4.844-10.539-7.707-2.697-5.974-.939-16.115-.863-16.544.055-.31.298-.553.608-.607l15.757-2.778c.306-.052.622.09.779.363.218.376 5.337 9.305 4.846 15.842-.255 3.404-2.443 10.143-8.903 11.282-.562.099-1.129.149-1.685.149zm-10.007-23.474c-.317 2.126-1.344 10.325.835 15.15 1.064 2.36 4.351 6.823 9.172 6.823.469 0 .948-.042 1.425-.126 5.551-.979 7.442-6.915 7.667-9.917.397-5.285-3.37-12.634-4.396-14.522z"/><path d="m44.399 21.341h-16.73c-.414 0-.75-.336-.75-.75s.336-.75.75-.75h16.73c.414 0 .75.336.75.75s-.336.75-.75.75z"/><path d="m7.912 44.561c-.044 0-.088-.004-.133-.012-.408-.073-.679-.463-.606-.871l2.283-12.728c.073-.407.463-.677.871-.605.408.073.679.463.606.871l-2.284 12.727c-.065.363-.381.618-.737.618z"/><path d="m13.847 45.677c-.043 0-.087-.004-.131-.012l-11.818-2.083c-.408-.071-.68-.461-.608-.868.072-.408.461-.68.869-.608l11.817 2.083c.408.071.68.461.608.868-.064.364-.38.62-.737.62z"/><path d="m11.75 31.971c-.557 0-1.124-.05-1.686-.149-6.457-1.139-8.647-7.877-8.903-11.282-.491-6.538 4.629-15.466 4.847-15.843.158-.271.466-.413.779-.363l15.757 2.778c.31.055.553.297.608.607.076.429 1.834 10.57-.863 16.544-1.291 2.864-4.965 7.708-10.539 7.708zm-4.696-26.066c-1.025 1.889-4.794 9.242-4.397 14.522.225 3.002 2.118 8.938 7.667 9.917.476.084.955.126 1.424.126 4.82.001 8.108-4.463 9.173-6.823 2.178-4.825 1.152-13.024.835-15.15z"/><path d="m18.535 20.659h-16.73c-.414 0-.75-.336-.75-.75s.336-.75.75-.75h16.73c.414 0 .75.336.75.75s-.336.75-.75.75z"/></g></svg>