<svg enable-background="new 0 0 50 50" height="50" viewBox="0 0 50 50" width="50" xmlns="http://www.w3.org/2000/svg"><g fill="#d20035"><path d="m25 48.057c-.069 0-.138-.01-.205-.028-8.709-2.471-15.524-9.311-18.698-18.767-1.568-4.675-2.39-9.93-2.443-15.617-.003-.32.197-.674.5-.781 11.125-3.938 18.417-9.234 20.387-10.763.271-.21.649-.21.92 0 1.97 1.529 9.263 6.826 20.385 10.762.302.107.503.394.5.714-.054 5.754-.875 11.009-2.443 15.684-3.174 9.456-9.988 16.296-18.697 18.767-.068.019-.137.029-.206.029zm-19.838-33.961c.096 5.388.888 10.307 2.358 14.689 2.989 8.904 9.353 15.359 17.48 17.741 8.127-2.383 14.491-8.837 17.479-17.741 1.476-4.398 2.269-9.338 2.358-14.689-10.322-3.728-17.339-8.58-19.837-10.459-2.496 1.879-9.515 6.73-19.838 10.459z"/><path d="m30.577 34.672h-11.153c-1.439 0-2.61-1.171-2.61-2.61v-9.792c0-1.439 1.171-2.61 2.61-2.61h2.331c-.294-.102-.505-.381-.505-.709v-3.05c0-1.439 1.171-2.61 2.61-2.61h2.279c1.438 0 2.609 1.171 2.609 2.61v3.05c0 .328-.211.607-.505.709h2.332c1.438 0 2.609 1.171 2.609 2.61v9.792c.002 1.439-1.169 2.61-2.607 2.61zm-11.153-13.512c-.612 0-1.11.498-1.11 1.11v9.792c0 .612.498 1.11 1.11 1.11h11.152c.611 0 1.109-.498 1.109-1.11v-9.792c0-.612-.498-1.11-1.109-1.11zm2.822-1.5h5.509c-.294-.102-.505-.381-.505-.709v-3.05c0-.612-.498-1.11-1.109-1.11h-2.279c-.612 0-1.11.498-1.11 1.11v3.05c-.002.328-.212.607-.506.709z"/><path d="m26.085 31.192h-2.17c-.414 0-.75-.336-.75-.75v-2.177c-.662-.544-1.059-1.365-1.059-2.233 0-1.595 1.298-2.893 2.894-2.893 1.595 0 2.893 1.298 2.893 2.893 0 .867-.396 1.688-1.058 2.233v2.177c0 .414-.335.75-.75.75zm-1.419-1.5h.67v-1.814c0-.266.141-.512.369-.646.425-.25.688-.709.688-1.199 0-.768-.625-1.393-1.393-1.393-.769 0-1.394.625-1.394 1.393 0 .497.257.945.689 1.199.229.135.37.381.37.646v1.814z"/></g></svg>