<svg enable-background="new 0 0 76 76" height="76" viewBox="0 0 76 76" width="76" xmlns="http://www.w3.org/2000/svg"><g fill="#d20035"><path d="m18.599 66.169h-6.6c-.414 0-.75-.336-.75-.75v-10.517c0-.414.336-.75.75-.75s.75.336.75.75v9.767h5.1v-12.8h-5.85c-.414 0-.75-.336-.75-.75s.336-.75.75-.75h6.6c.414 0 .75.336.75.75v14.3c0 .414-.336.75-.75.75z"/><path d="m31.799 65.068c-.008 0-.017 0-.025 0l-12.1-.407c-.414-.015-.738-.361-.724-.775s.381-.72.775-.725l12.02.405 11.843-2.153c.895-.685 5.501-4.201 7.9-5.92-.989-.616-2.645-1.018-3.492-.62-1.422.67-4.822 2.396-4.856 2.414-.105.053-.222.081-.34.081h-11c-.356 0-.663-.25-.735-.599l-.55-2.676c-.066-.323.086-.652.376-.81 0 0 3.271-1.783 4.379-2.393.158-.102.31-.88-.001-1.571-.321-.713-.792-.584-.97-.531-1.919.537-8.624 2.624-9.799 2.99l-1.823 1.823c-.293.293-.768.293-1.061 0s-.293-.768 0-1.061l1.954-1.954c.085-.086.191-.149.307-.186.322-.101 7.902-2.465 10.019-3.059 1.21-.335 2.279.223 2.787 1.468.484 1.185.357 2.82-.69 3.395-.843.464-2.94 1.608-3.896 2.129l.315 1.533h10.208c.701-.355 3.456-1.749 4.736-2.353 1.779-.836 4.852.183 5.936 1.584.126.163.18.372.147.576s-.147.386-.318.503c-2.084 1.421-8.7 6.484-8.767 6.535-.095.072-.205.121-.322.143l-12.1 2.2c-.043.01-.088.014-.133.014z"/><path d="m55.691 39.932h-34.68c-1.77 0-3.21-1.44-3.21-3.21v-17.081c0-1.77 1.44-3.209 3.21-3.209h34.68c1.77 0 3.21 1.44 3.21 3.209v17.081c0 1.769-1.44 3.21-3.21 3.21zm-34.68-22.001c-.943 0-1.71.767-1.71 1.709v17.081c0 .943.767 1.71 1.71 1.71h34.68c.943 0 1.71-.767 1.71-1.71v-17.08c0-.942-.767-1.709-1.71-1.709h-34.68z"/><path d="m62.188 33.332c-.016 0-.031 0-.046 0h-.785c-.414 0-.75-.336-.75-.75s.336-.75.75-.75h.795c1.023.015 1.835-.788 1.85-1.788v-16.936c-.015-.989-.83-1.819-1.839-1.777h-34.413c-.989-.013-1.835.788-1.849 1.788v.762c0 .414-.336.75-.75.75s-.75-.336-.75-.75v-.773c.027-1.837 1.574-3.272 3.359-3.277h34.391.046c1.795 0 3.277 1.456 3.304 3.267v16.957c-.026 1.82-1.508 3.276-3.313 3.277z"/><path d="m38.354 25.633c-.456 0-.913-.078-1.355-.234-1.158-.409-2.057-1.309-2.467-2.467-.138-.391.066-.819.457-.958.392-.138.819.066.958.457.258.729.825 1.296 1.554 1.554 1.327.467 2.787-.227 3.257-1.554.138-.39.567-.594.958-.457.39.138.595.567.457.958-.361 1.02-1.098 1.838-2.075 2.304-.555.264-1.148.397-1.744.397z"/><path d="m41.651 27.831h-6.6c-.414 0-.75-.336-.75-.75s.336-.75.75-.75h6.6c.414 0 .75.336.75.75s-.336.75-.75.75z"/><path d="m41.651 31.131h-6.6c-.414 0-.75-.336-.75-.75s.336-.75.75-.75h6.6c.414 0 .75.336.75.75s-.336.75-.75.75z"/><path d="m38.352 34.431c-.414 0-.75-.336-.75-.75v-6.6c0-.414.336-.75.75-.75s.75.336.75.75v6.6c0 .414-.336.75-.75.75z"/><path d="m28.451 28.931h-4.4c-.414 0-.75-.336-.75-.75s.336-.75.75-.75h4.4c.414 0 .75.336.75.75s-.336.75-.75.75z"/><path d="m52.651 28.931h-4.4c-.414 0-.75-.336-.75-.75s.336-.75.75-.75h4.4c.414 0 .75.336.75.75s-.336.75-.75.75z"/></g></svg>