<svg xmlns="http://www.w3.org/2000/svg" width="108" height="78" viewBox="0 0 108 78">
  <g id="グループ_6360" data-name="グループ 6360" transform="translate(6427.227 10077.071)">
    <rect id="長方形_3050" data-name="長方形 3050" width="108" height="78" rx="7" transform="translate(-6427.227 -10077.071)" fill="#fffeff"/>
    <path id="長方形_3050_-_アウトライン" data-name="長方形 3050 - アウトライン" d="M6.632,3.316A3.32,3.32,0,0,0,3.316,6.632V71.3a3.32,3.32,0,0,0,3.316,3.316h94.509a3.32,3.32,0,0,0,3.316-3.316V6.632a3.32,3.32,0,0,0-3.316-3.316H6.632M6.632,0h94.509a6.632,6.632,0,0,1,6.632,6.632V71.3a6.632,6.632,0,0,1-6.632,6.632H6.632A6.632,6.632,0,0,1,0,71.3V6.632A6.632,6.632,0,0,1,6.632,0Z" transform="translate(-6427 -10077)" fill="#d50039"/>
    <path id="線_382" data-name="線 382" d="M40.451,2.316H.658A1.658,1.658,0,0,1,.658-1H40.451a1.658,1.658,0,1,1,0,3.316Z" transform="translate(-6373.771 -10055.274)" fill="#d50038"/>
    <path id="線_383" data-name="線 383" d="M40.451,2.316H.658A1.658,1.658,0,0,1,.658-1H40.451a1.658,1.658,0,1,1,0,3.316Z" transform="translate(-6373.771 -10039.522)" fill="#d50038"/>
    <path id="線_384" data-name="線 384" d="M40.451,2.316H.658A1.658,1.658,0,0,1,.658-1H40.451a1.658,1.658,0,1,1,0,3.316Z" transform="translate(-6373.771 -10023.771)" fill="#d50038"/>
    <path id="合体_11" data-name="合体 11" d="M0,46,9.886,29.295A15.571,15.571,0,0,1,17.5,0a15.571,15.571,0,0,1,7.614,29.294L35,46Z" transform="translate(-6417.227 -10062.071)" fill="#fff"/>
    <path id="合体_11_-_アウトライン" data-name="合体 11 - アウトライン" d="M30.489,43.938,21.55,28.614l2.236-1.229a13.265,13.265,0,1,0-12.753,0l2.236,1.229L4.33,43.938H30.489m4.33,2.487H0l9.835-16.86a15.751,15.751,0,1,1,15.149,0Z" transform="translate(-6417.052 -10062.077)" fill="#d50039"/>
  </g>
</svg>
