<svg enable-background="new 0 0 76 76" height="76" viewBox="0 0 76 76" width="76" xmlns="http://www.w3.org/2000/svg"><g fill="#d20035"><path d="m73.557 61.074c-.01 0-.02 0-.028-.001-.414-.015-.737-.362-.722-.776l.385-10.465c.051-1.849-1.001-3.536-2.685-4.309l-4.057-1.121c-.005-.001-.01-.003-.016-.004-.153-.042-1.49-.382-2.559-.653-.773-.196-1.414-.362-1.424-.365-.392-.136-.599-.562-.464-.954.136-.392.564-.601.954-.464.013.002.601.15 1.303.329 1.854.472 2.409.612 2.604.668l.001-.002 4.112 1.137c.035.01.07.022.104.037 2.27 1.01 3.691 3.267 3.623 5.749l-.386 10.472c-.012.404-.344.722-.745.722zm-28.395 0c-.401 0-.733-.318-.748-.723l-.385-10.465c-.069-2.489 1.353-4.746 3.622-5.756.038-.017.077-.03.118-.041l6.456-1.658c.794-.19.793-.243.78-.747l-.004-3.18c-1.389-.931-2.472-2.31-3.028-3.977-.131-.393.082-.818.475-.949.397-.133.817.082.949.474.85 2.548 3.229 4.261 5.92 4.261 2.471 0 4.713-1.462 5.712-3.725.283-.642.442-1.354.46-2.061 0-3.689-.806-3.921-3.477-4.689l-.623-.181c-2.591-.765-5.812-1.716-8.506-4.336-.297-.289-.303-.764-.014-1.061.288-.297.763-.302 1.061-.015 2.427 2.362 5.452 3.255 7.882 3.973l.615.179c3.081.886 4.562 1.518 4.562 6.149-.023.919-.227 1.828-.587 2.647-1.239 2.807-4.021 4.621-7.085 4.621-.985 0-1.937-.186-2.815-.527l.003 2.359c.022.896-.106 1.807-1.918 2.241l-6.381 1.639c-1.681.773-2.729 2.46-2.678 4.312l.384 10.458c.016.414-.308.762-.722.776-.008.002-.018.002-.028.002zm3.686-18.344c-.104 0-.208-.021-.308-.066-.328-.147-.499-.502-.426-.84.025-.156.37-2.374.57-6.579.02-.415.381-.721.785-.713.413.02.732.371.713.785-.191 4.013-.548 6.742-.651 6.971-.125.278-.397.442-.683.442zm1.94-8.63c-.027 0-.055-.001-.082-.004-.621-.067-1.796-.619-1.796-2.225v-1.14c0-1.163.747-2.365 1.998-2.365.607 0 1.083.25 1.447.558.338-1.392 1.005-2.283 1.594-2.936.276-.309.752-.332 1.06-.054.307.277.331.751.054 1.059-.634.702-1.296 1.644-1.4 3.3-.022.232-.086.854-.664 1.003-.566.149-.889-.31-1.1-.614-.299-.43-.599-.817-.99-.817-.348 0-.498.573-.498.865v1.14c0 .665.411.729.458.734.411.044.709.415.665.826-.043.385-.368.67-.746.67zm-1.214-6.694c-.414 0-.75-.336-.75-.75 0-6.349 4.707-11.514 10.493-11.514.414 0 .75.336.75.75s-.336.75-.75.75c-4.959 0-8.993 4.492-8.993 10.014 0 .414-.336.75-.75.75z"/><path d="m69.602 42.73c-.286 0-.559-.164-.684-.442-.146-.322-.434-6.292-.466-6.971l-.142-8.648c0-5.534-4.034-10.026-8.993-10.026-.414 0-.75-.336-.75-.75s.336-.75.75-.75c5.786 0 10.493 5.165 10.493 11.514l.141 8.613c.197 4.144.37 6.367.393 6.602.048.323-.121.652-.435.793-.099.044-.204.065-.307.065z"/><path d="m24.335 38.722c-.224 0-.444-.099-.592-.288-.255-.327-.197-.798.129-1.053 1.604-1.253 3.638-3.222 4.221-5.483.079-.306.342-.53.657-.559.991-.093 1.324-.458 1.32-1.451-.006-1.447-.739-2.848-1.197-2.961-.402-.099-.647-.505-.549-.908.101-.402.507-.647.908-.548 1.516.374 2.331 2.802 2.338 4.411.004 1.13-.385 2.496-2.168 2.873-.82 2.455-2.929 4.497-4.606 5.808-.137.107-.3.159-.461.159z"/><path d="m15.348 42.231c-.041 0-.083-.003-.126-.011-.408-.068-.684-.455-.614-.864l.511-3.035c-1.626-1.311-3.53-3.24-4.307-5.531-1.265-.408-2.169-1.852-2.176-3.594-.007-1.758.91-3.253 2.229-3.636.4-.118.814.114.93.511.115.398-.114.814-.512.929-.669.194-1.151 1.115-1.147 2.19.004 1.175.589 2.146 1.33 2.212.314.028.578.249.659.553.604 2.255 2.652 4.213 4.265 5.459.22.169.327.445.281.718l-.585 3.474c-.062.367-.379.625-.738.625z"/><path d="m11.073 27.03c-.397 0-.729-.312-.748-.714-.011-.219-.224-5.397 2.933-8.723 1.671-1.76 3.955-2.658 6.79-2.668 2.835-.028 5.126.871 6.803 2.62 3.162 3.299 2.962 8.47 2.951 8.688-.02.414-.409.736-.782.714-.414-.019-.734-.369-.716-.783.002-.047.175-4.76-2.542-7.588-1.381-1.437-3.33-2.141-5.708-2.152-2.409.009-4.33.75-5.708 2.201-2.72 2.865-2.524 7.57-2.522 7.618.021.414-.299.765-.713.785-.012.001-.025.002-.038.002z"/><path d="m24.273 23.378c-.444 0-.902-.025-1.378-.077-1.718-.183-3.142-.868-4.518-1.531-.361-.174-.726-.35-1.101-.519-1.371-.62-2.518-.767-3.406-.439-.651.239-1.197.708-1.463 1.256-.181.372-.626.531-1.002.348-.373-.181-.528-.629-.348-1.002.438-.902 1.273-1.635 2.294-2.009 1.273-.469 2.801-.309 4.543.48.385.174.761.355 1.133.534 1.32.635 2.566 1.236 4.026 1.391 1.915.206 3.494-.057 4.979-.823.367-.19.82-.044 1.011.323.189.368.045.82-.323 1.01-1.38.713-2.819 1.058-4.447 1.058z"/><path d="m17.146 60.856c-.382 0-.708-.29-.745-.678l-1.801-18.625c-.04-.412.262-.779.674-.818.402-.053.779.261.818.674l1.801 18.625c.04.412-.262.779-.674.818-.024.003-.048.004-.073.004z"/><path d="m31.152 53.359h-3.216c-.414 0-.75-.336-.75-.75s.336-.75.75-.75h3.216c.414 0 .75.336.75.75s-.336.75-.75.75z"/><path d="m2.146 60.856c-.03 0-.061-.002-.092-.006-.411-.05-.704-.424-.653-.835l1.413-11.576c.242-1.825 1.643-3.599 3.406-4.32l8.862-3.34c.387-.143.821.05.967.438s-.05.82-.438.967l-8.843 3.332c-1.25.512-2.296 1.824-2.468 3.113l-1.411 11.568c-.046.38-.369.659-.743.659z"/><path d="m16.072 48.66c-.234 0-.466-.109-.612-.315-.24-.337-.161-.806.177-1.046l3.353-2.386-4.069-2.814c-.341-.236-.426-.703-.19-1.044.235-.339.702-.427 1.044-.19l4.948 3.423c.201.14.321.368.323.612s-.116.475-.315.616l-4.224 3.006c-.133.093-.284.138-.435.138z"/><path d="m23.444 60.856c-.024 0-.049-.001-.073-.004-.412-.039-.714-.406-.674-.818l1.801-18.625c.039-.413.406-.729.818-.674.412.039.714.406.674.818l-1.801 18.625c-.037.388-.363.678-.745.678z"/><path d="m38.444 60.856c-.374 0-.697-.279-.743-.659l-1.412-11.576c-.172-1.281-1.218-2.595-2.486-3.113l-8.823-3.324c-.388-.146-.583-.579-.438-.967.146-.389.581-.581.967-.438l8.843 3.332c1.782.729 3.183 2.502 3.425 4.319l1.413 11.585c.051.411-.242.785-.653.835-.032.004-.062.006-.093.006z"/><path d="m24.519 48.66c-.15 0-.302-.045-.434-.139l-4.225-3.006c-.199-.142-.317-.372-.315-.616s.122-.473.323-.612l4.949-3.423c.342-.236.809-.148 1.044.19.235.341.15.808-.19 1.044l-4.07 2.814 3.354 2.386c.338.24.417.709.177 1.046-.148.207-.379.316-.613.316z"/><path d="m20.356 51.341c-.414 0-.75-.336-.75-.75v-1.097c0-.414.336-.75.75-.75s.75.336.75.75v1.097c0 .414-.335.75-.75.75z"/><path d="m20.356 54.996c-.414 0-.75-.336-.75-.75v-1.097c0-.414.336-.75.75-.75s.75.336.75.75v1.097c0 .414-.335.75-.75.75z"/><path d="m59.287 52.438c-5.131 0-8.43-7.202-8.567-7.509-.17-.378-.002-.821.376-.991.373-.168.821-.004.991.375.03.066 3.038 6.625 7.2 6.625.414 0 .75.336.75.75s-.336.75-.75.75z"/><path d="m49.053 60.967c-.414 0-.75-.336-.75-.75v-15.278c0-.414.336-.75.75-.75s.75.336.75.75v15.277c0 .415-.336.751-.75.751z"/><path d="m59.287 52.438c-.414 0-.75-.336-.75-.75s.336-.75.75-.75c4.171 0 7.169-6.558 7.199-6.624.17-.379.617-.546.991-.376.378.17.546.613.376.991-.137.306-3.436 7.509-8.566 7.509z"/><path d="m69.521 60.967c-.414 0-.75-.336-.75-.75v-15.278c0-.414.336-.75.75-.75s.75.336.75.75v15.277c0 .415-.336.751-.75.751z"/></g></svg>