<svg enable-background="new 0 0 76 76" height="76" viewBox="0 0 76 76" width="76" xmlns="http://www.w3.org/2000/svg"><g fill="#d20035"><path d="m24.62 39.435-.063-.267-.006-.026c1.963-1.147 2.955-3.064 2.979-5.75 0-.712-.037-1.347-.105-1.919-.171-1.448-.553-2.459-1.156-3.019l.035-.26c1.215-.8 1.823-1.624 1.823-2.468 0-.78-.351-1.169-1.052-1.169-.795.086-1.192.433-1.192 1.04v.163c.023.021.035.141.035.356v.228c0 .585-.198 1.028-.596 1.332h-.212c-.224-.121-.452-.224-.682-.318.782-1.048 1.041-1.958.767-2.72-.268-.739-.733-1.005-1.399-.8-.724.317-.98.763-.772 1.338l.057.154c.028.014.081.124.155.329l.077.216c.155.429.165.812.038 1.15-.457-.102-.921-.162-1.394-.162h-.247c-2.991 0-4.811 1.318-5.466 3.938-.18.713-.276 1.521-.281 2.43v.13c0 1.159.14 2.161.413 3.014.953 2.048 2.874 3.462 5.109 3.555v.008c.102.004.191.019.295.019 2.407.022 3.611.649 3.611 1.884 0 1.604-1.474 2.609-4.416 3.021h-.808c-.56 0-.945-.932-1.155-2.793h-.772l-.35 3.508h.491c6.471 0 9.708-1.202 9.708-3.606v-.03c-.046-1.153-1.203-1.987-3.469-2.506m-5.783-6.076v-.195c0-3.724.969-5.587 2.909-5.587 1.892 0 2.851 1.928 2.873 5.782 0 3.855-.946 5.782-2.839 5.782-1.961.001-2.943-1.926-2.943-5.782"/><path d="m63.785 59.117h-51.569c-3.224-.003-5.848-2.628-5.852-5.851v-30.533c.003-3.224 2.628-5.848 5.851-5.852h51.568.001c3.222.003 5.846 2.627 5.851 5.85v30.534c-.003 3.224-2.628 5.849-5.85 5.852zm-51.569-40.735c-2.396.002-4.349 1.955-4.352 4.353v30.531c.002 2.396 1.955 4.349 4.353 4.352h51.566c2.396-.003 4.349-1.955 4.352-4.353v-30.533c-.003-2.396-1.956-4.348-4.353-4.351h-7.562v14.199c0 .303-.183.577-.463.693s-.603.052-.817-.163l-3.236-3.236c-.141-.141-.25-.14-.391 0l-3.237 3.236c-.215.214-.537.279-.817.163s-.463-.39-.463-.693v-14.198zm36.079 0v12.389l1.957-1.956c.67-.671 1.842-.671 2.512 0l1.956 1.955v-12.388z"/><path d="m60.85 51.992h-22.017c-.414 0-.75-.336-.75-.75s.336-.75.75-.75h22.017c.414 0 .75.336.75.75s-.336.75-.75.75z"/><path d="m60.85 46.788h-22.017c-.414 0-.75-.336-.75-.75s.336-.75.75-.75h22.017c.414 0 .75.336.75.75s-.336.75-.75.75z"/><path d="m60.85 41.539h-22.017c-.414 0-.75-.336-.75-.75s.336-.75.75-.75h22.017c.414 0 .75.336.75.75s-.336.75-.75.75z"/></g></svg>