<svg enable-background="new 0 0 50 50" height="50" viewBox="0 0 50 50" width="50" xmlns="http://www.w3.org/2000/svg"><g fill="#d20035"><path d="m28.274 43.768h-19.574c-.414 0-.75-.336-.75-.75v-38.426c0-.414.336-.75.75-.75h9.338c.414 0 .75.336.75.75s-.336.75-.75.75h-8.588v36.925h18.824c.414 0 .75.336.75.75s-.336.751-.75.751z"/><path d="m36.661 35.381c-.414 0-.75-.336-.75-.75v-29.289h-8.588c-.414 0-.75-.336-.75-.75s.336-.75.75-.75h9.338c.414 0 .75.336.75.75v30.039c0 .414-.336.75-.75.75z"/><path d="m30.335 16.62h-15.309c-.414 0-.75-.336-.75-.75s.336-.75.75-.75h15.309c.414 0 .75.336.75.75s-.336.75-.75.75z"/><path d="m30.335 21.91h-15.309c-.414 0-.75-.336-.75-.75s.336-.75.75-.75h15.309c.414 0 .75.336.75.75s-.336.75-.75.75z"/><path d="m30.335 27.199h-15.309c-.414 0-.75-.336-.75-.75s.336-.75.75-.75h15.309c.414 0 .75.336.75.75s-.336.75-.75.75z"/><path d="m30.335 32.489h-15.309c-.414 0-.75-.336-.75-.75s.336-.75.75-.75h15.309c.414 0 .75.336.75.75s-.336.75-.75.75z"/><path d="m26.506 9.32c-.785 0-1.454-.587-1.554-1.365l-.013-.097c-.137-1.052-1.037-1.843-2.094-1.843-1.058 0-1.958.791-2.094 1.839l-.012.098c-.103.782-.771 1.368-1.555 1.368h-.328c-.864 0-1.567-.703-1.567-1.566v-4.779c0-.762.62-1.381 1.382-1.381h8.022c.762 0 1.381.62 1.381 1.381v4.779c-.001.864-.704 1.566-1.568 1.566zm-3.661-4.804c1.808 0 3.348 1.352 3.581 3.146l.013.097.067.062c.037 0 .067-.03.067-.066v-4.66h-7.785v4.66l.396.066.079-.156c.234-1.797 1.773-3.149 3.582-3.149z"/><path d="m34.629 48.406c-4.092 0-7.421-3.329-7.421-7.422 0-4.092 3.329-7.42 7.421-7.42s7.421 3.328 7.421 7.42c0 4.093-3.329 7.422-7.421 7.422zm0-13.342c-3.265 0-5.921 2.655-5.921 5.92 0 3.266 2.656 5.922 5.921 5.922s5.921-2.656 5.921-5.922c0-3.264-2.656-5.92-5.921-5.92z"/><path d="m34.408 44.111c-.184 0-.361-.067-.499-.19l-2.695-2.402c-.31-.275-.337-.749-.061-1.059.275-.31.75-.337 1.059-.061l2.111 1.881 3.39-4.146c.262-.321.734-.366 1.056-.106.321.263.368.735.106 1.056l-3.886 4.752c-.13.158-.318.257-.522.273-.02.001-.039.002-.059.002z"/></g></svg>